<mxfile host="app.diagrams.net" modified="2023-03-27T02:19:05.576Z" agent="Mozilla/5.0 (Windows NT 10.0; Win64; x64) AppleWebKit/537.36 (KHTML, like Gecko) Chrome/111.0.0.0 Safari/537.36 Edg/111.0.1661.54" etag="t7-Le874YTQdhJ48cQWj" version="21.1.1" type="github">
  <diagram name="第 1 页" id="2PTtE6jYd4WFurtBTt8Y">
    <mxGraphModel dx="1434" dy="756" grid="1" gridSize="10" guides="1" tooltips="1" connect="1" arrows="1" fold="1" page="1" pageScale="1" pageWidth="827" pageHeight="1169" math="0" shadow="0">
      <root>
        <mxCell id="0" />
        <mxCell id="1" parent="0" />
        <mxCell id="iJ2vNzAkWptpj8grVS_f-1" value="" style="shape=image;verticalLabelPosition=bottom;labelBackgroundColor=default;verticalAlign=top;aspect=fixed;imageAspect=0;image=data:image/png,iVBORw0KGgoAAAANSUhEUgAAAOUAAADVCAYAAACosze7AAAAAXNSR0IArs4c6QAAIABJREFUeF7tfd1zHMmRX2YPPsnB11+woEiQAHQRHL74yWcCtuNshx8IPhBc7a6OgEN3J61OR0CrlXb3LBEQLWlPK4uAZGlXluMAnJar5fAcBC78EXbYBnBhxz3cA4cRFsn9MsG/ABgAXAADTKcje3rAmZ7u6eru6pnumeoXBjjV1VW/yl9lVlZWFoJ6FAIKgUghgJFqjWqMQkAhAIqUSggUAhFDQJEyYgOimqMQUKRUMqAQiBgCipQRGxDVHIWAIqWSAYVAxBBQpIzYgKjmKAQUKZUMKAQihoAiZcQGRDVHIaBIqWRAIRAxBBQpIzYgqjkKAUVKJQMKgYghoEgZsQFRzVEIKFIqGVAIRAwBRcqIDYhqjkJAkVLJgEIgYggoUkZsQFRzFAKKlEoGFAIRQ0CRMmIDopqjEFCkbGAZ2Hzl90ZQzy8g4pre2jbdt5jZauDuNkzXFCkbZiifd2RzItWLR7kFJBgr6d4WIM30vP9ovgG73FBdUqRsqOEE2HxpOKUh3AOAfruuEdAa5Wmy78PHGw3W9YbpjiJlwwwlwPZLwxOEsODaJcQtBH2y+/1Hy65lVYGaI6BIWXPIw/lg9qXhBUCY8FI7Ekx2f/Bw0cs7qmz4CChSho9x6F/IvjzM2tETIY8bhTDb8/7DmdAbqT4gjIAipTBU0SwYiJBml5TGjNbYKlJGazw8tSb78henAOiWp5ccCitiykBRTh2KlHJwrHktm18aGtM0ZC+rlIcAtiivX1BeWSlwBqpEkTIQfPV5mfchtcPcEwDoldkCBFzrvv27UZl1qrq8I6BI6R2zur+x9dLwPcSywACJbaLpntuP5iRWqKryiIAipUfA6l18+5WhMSJ5Zmtlf3Cr5/bv+urdz2b+viJlzEZ/66WhJ4hoG60jqyvK6SMLSX/1KFL6w60ubwlH7ARv3UbP7YenglejavCDgCKlH9Tq9M7Wy0OrCDhSi88TQAYJlhFxA/X8RtdvH6/L/C7H6LaQ3kOo9RJAqli3rutLze4BVqSUKWkh1rX54mC/ltDY41rPJwOAawiQyefz66LkYW9xIpe7CAhjJgGPSWjtjPIAg7rJuZ4S7vZtQ5gP9y8RaCNENBL2WtKtPRW/E2wA0rJOuNT3wcOM9XfjxArAdSajl+0bHfXRvvcfr3luT4O8oDRlBAdy+6XhS7oGE5bzkBFsaVmTNgBwWSdaAl3fSiQSCwTky9RGgJXu2w9Lz4JGve9S26dIKRVO/5UVzNPEdQDiwHKpQQH+W1W/N/W8fkrUPK5fK8P5siJlOLgK17rzyu+NEOjXqTxLgPD7jVsQp3tu/64pgxgUKT1I9eaXBi8eF0cta7eOEq1u85XBESS8UStvqmi7IlRupadJTVhFyhIpZMdEAvE8ewgRIEVAbEY6egqfExS3kCBDQOz4yGhIma7f2G8hcDKrBNENv+utCJEm7KZs9dx+2JSRRU1NSmMdp+ElAhxBBHZKSF3LEe/zAa3pOq1AR8eWdpjjY1b+DiOHTYEI1t9z+2FTymfTddo4YXF0cA0ImRzuWlCasOIWFDSvegQR0FAb7Xr//zbd1kjTkTL70vAMINwQlAtVrI4I6KiN9ilS1nEEavTp7CvDM0CKlDWCO9BnlKYMBF98XlakjM9Y6a1tfc2Y1b35zFelKePCyqc9tx+GekQtqkA0HymbcU1JlDVOfYCWASC+vmBLR6qIVbUTUo0wBYi9QNRPBP2A0I+AL4Qt0Nze3tsPL4T9nSjW33ykbAJNiQjrRLSsYSJz1NKSkW0Csge75egopYM+AmR4sHk7qScEAV/suf1wMoR6I12lImWkh0escQTwAIEWdcK1IFFGYl+zL8URSpqeGCOkMQSQqUmbjphNR8oant4PIuMi7z4FwDk9n1+OWuC2cWRLwwkgI7g+sAZFgMXuJtKYTUdKY0YnbVVE6qNZhpZ0wrl6aUQvmJiHm8cIga9FCKY9CRZ7PmgOU7b5SBmNE/xeZJvLZgFhTm9pm5O9PvTaEL/lOQsfAE4RwfOgfs+VNcfJkaYjpSHhLw9tAWBgs8qzTPl5AWE2zmS0dtm0VPimL1+asxky7TUlKbdfHl4mgEt+OFKrdxDgQT6vj0VtvSir/+bans9LepwccUsnGo2D+e4Xq6YkZfbloSkAlHIxjl/gq75HON/zwe+mQqk7QpUWrl84mAPAa16axXuY1No2GldT3q2vTUlK8wry+27g1OH3LCJNNNsNy2bWdzZphbUmISz3vv/wch3GKPRPNiUpjXXlS0NbgBFaVxJldcCRRjbLqkkza03M5ZYRxR1BiHS5ESew5iXlK1+cA6LroU97Yh/I6gRNS8hSiLIvDy0Km7OIW3pL66lGM2OblpRRMWEJ6CkRjjWrhrSbs7wFeNBSz+1HDZXNoWlJycKw/coXM0R0XkyZhVIqq+f1VKN6WIMgZk6anHXAdZ3ZaOcum5uUXx6eIB0WjDzxBIV88TX8Vye4oDSkM3ULxKQ1Y+1fZVwIaa33/UcNc9ltU5PScPh8eXiDA6hryMXiXRGT3b95yB5H9VRBYHNiOKXlwdCY1eZMpMbJ59P0pNxmbYmwUFMVCTDf81ePGn4fUtZsUyCmqTEdVCYRrfX+pjG0ZdOT0lhbTgxniOA8IgARQKj/AjzVoS3VaB5DWQR0qmdnYnCEQFutNj7G2nIx/tnvFCkBgAdcB1x9vqgsikbRYJL3tw5woW+x8oaqsIVapP7NicH+Fqwek3pEHQ/qNaFsTwxPENDC876Ujw8irnQvxP9iIEVKc4Szk1+cQwx33xIJ57sWohE+ZxyrwtxFQhpBzh6A3i6j5WzwiLBBhGucHT5P+oO+xccbIuQPUmZ7cmgR0DksL6/rp2rRjiB9cHtXkdJEyBDSRG7N2CIpRaXoASoi6f/vrJ5v76+XluHmF/q4fwkA+fLWwlVz/vtTQKT8/QwQLes6LIVFjONxAnMrq6L9ONvzlw/5/GZsH0XKkqHb/aPhlE50/9iMLS4unfZKvPyOMNn96/p4Wze/OtifyGs3wLjZi7O0m2afl/bbOViqvF+4nh3n8vnWFdkTkdGfI8wUtkrK/eaEtNHz60enYstIc2cuzu2X2nYebC2PT+wUpXXLxKo4q/0OAE97fv2o5ukSDa3Sun8LACeCtN9uK8JD/7c0hMUjjeb73pNn3ma/MjSFCLfstrJ0wAt9v47mul1EYJWmLEFp50+G5oivA5cdRYA42f1ebbVk9k+GriPgTJlmlN0vj/Uh4cxRrm1elubc/urQGhiZDMqnDUSc7XovviasImUJKbNfHXoCBP1slRWttaIL3vffrCXfq52WNLRjx8E9IBhhWQ3cfnOLyHf/K9/fAoCZnl89mhfRGtXK8HIjr9F9m/Fa737vka+r3YO2Scb7ipQmiruvFteTMmB9XgcBTPe8+6gmNxKbfeCkYHG43WstTzQZ1KTNvjo8g0QVFzZ1v/sotrId24bLpQ5A9tXBGQS0uY3L6t6zfrn67/m29r6+uQxrh1Cf7VcHJ8xsChZCBmt/pXvWW/9d3t8Cgsnudx8t+wVncyrVm8jtb1hzLmmAF5K/jOe6UpHSlIadrw/dB+Tbmy0rlGKEj1O8epXfgWCl+xePClsPIT7b3xicAMIF29jQAO036qvF+wBzXb94NO0XIrv+6wTTPb+ojYXit91O7ylS8v7dFLvY4Yn0iB7eBvn541CDzrf/lFM30r3CAMuPQCpouuITYv0Ei/nWjmm/VsX2nw6ytnyh2F4EnO/6d/GML1ak5NjXbwxOIKIRviVrL52Ist0/fxzq2m53ajil67SKJWvIIO0ngCwClF38Q0QpLEmbEqR+AXwzR1r7qB9i7vzZ4AwA3ihp33rXz+Lp7FGkZFJODS4CgaeMaq4mC+FK98/CM12NtRTtc/Iv//ufiCsEsJYAXEvOVV9/7UwZ8cEp1GkMPOTRccXJUgABM0fonZgmHpsl1W10zz+OZRCBIiUHpE+b+10SDzkT0WT3XHim687U0D1AGPN6KJsAngLRTB46lv1opKLQb08Z1sWEsU8oETfuD19WlJx77Pm2rd3poUXiydVsT9dcPD2wipSsKacHSxdOjiso66xvXWGV/p4nONU3Jy+CpbRu1lqEwGZr2YrPpX189cFU90/lThS7UwMpHRN8NrTC0vDYvvLmEyx2eyTm9mtDY6AX19cA3bcex1K+Y9loryZRtfK7rw+nSNfNHLBOU77V0WEtV/47AT7t/rfhBQzsfnPwCSGbrU6Ol/L2EcBSPt8xFUQzumG+861BvquS92PPV0ZEecOv+D5fUZD0OIlsvza4UbjUluAo31GT7Sg3bLz+3vSk3P7m4ARqsOBkBlojYqzl7H/Hla6fhLOetLbXtX06TMrWjtWEbOdb7HABDn43uOXaPkvETxm+gFuoHY0m3/lE6NZpbtfOa+fmAPG6Wc9o108ecyqRWD1NT8qdbw/OAIFN0IDdFoOgAYsw2/Xjx6EcH9p5feg+APHtyTZbIOXtQ4DJ5DtyzVUR6Ta0JsJyYUPfdmVgViNk4K51vfNYOCmWYfmAafkQKFKKDFiUyuy8MTjC2ewwiAfTpkME+uXuH3/sO0rFCaPd1wdShAmh6xaII2XqQMhi2zffGOxP6LAm41ZnBJpO/vgj4VDFnW+fywDg+SMNTvW9Hc66Pkw5bkpNyWQ0TCwAXgfZHwopou7v99Gut+WbTTtvDBWyupeOmm37cKXr7XDMZy/CuPvWcIry+hogVKaI9IIv4NbRQfupMNfEXvoVdtmmIuXmTH9vYr/jFiKwK98kozWOLPjfXW9/FAquu28MPiGg/kJmL8f2Z486Dvr7ZjZCj7cVEc7dtwZSpGtrhilrG7cnjPds19vhLAlE+lHLMqEITy07IPqt7TeHxgoOHeq1UzTWiTvI310/lO+K33tjsD+vwRO3iBrgdeQPa7+OrDYOjL2Gha0Kt/Y7/U5AW0dtnaf6ZsIP7heVqbDKNTwpWTu2HnbcIqCa3DfBm/PdP/jIf5SNw0hvv3l2DDU0Y1ztCyHg0+QPHkv/tgzh2/nzc7zGDnRRLwJMJ38gvraU0e561NHQpNybGezPH/EMjQVvpc22nuGyLyIv4XcCWO+6+Vj6Adudfz04g2huNZS0t7z9NJ28GU2h5cmx5aid9xCf3w1S3DIRx38jeTOeoXNeyN2wpNydMdYyq0DPD/w6bbVXkQk/ZyTWu25+JJ+U3zs3hwTXq53ZaEngqc6Z6Hobd77H20/PDyT7GQ9I6BeSM+L7ll7IEJWyDUlKJiSQxsmVe/2vYnyuKgnWk9+Xryl3vzfIXsyLjv0heJr8fjRN1yKSxlKC2jdLbBPvq0yk+eTMRw195UPDkdLQkFDQkKFeP+BwvQEQZZKzH1+QPevuzJzjPb+Ljmn7Aea7YiCsuzNnjUth/V4PAQQbydmPYnn6Q1QmGoqUxhoSOW9r0WT1YyAFP9SbvCF/S2R3dpDDxUxNWWlwE+Bs143obxk8mzk7Rlh0WPkbnwRF20wXJZ9TuYYhpWEaJdpZQ5ohaEGh8f9+8nshkPLm2UUg53T9RDTbdePjUEL7/CNh/+bu989Vi71z/RwiXT75XfkRU64frlGBhiHls5vn7hGfLyx5hCIrqwDt930iHO36rtyInmc3B2cIy7O2lbYPCWdPfjf6mpLh3r3J62O66BffOPXVD48bgpS7/+bcFABxJvDaXsXs8D3U4PLJt+TO5Ds3B0cQadXpHk1DU343Hppy5+bZwvaO3/FCXE/+uXwPtx8ChfFO7Em596PB/rxx/wcYkTrBV4TPYfZdH8J88k25HkI2z9va2jed+0dLybc+rkmARFBB3P3B4AQgHWff87EltZV866O+oO2I6vuxJ+XOD8/eQ0TO6OaUBLL2/4+QSb4h3wO7+yM+/cC3TdlZBLCRfDMeXsmdHw2OIOgl94F6t3CSb8pft0eFpLEmJQ+uxiad9zENncO5toO+vmm5QeG7P+K8OLTg1F/S9AvJb0d/Y13GuJ38jiJlVCaRsnY8+4tzhVMTUXyQJpPf/kR6ztfdvzjLF7O+4NDlpeR3om/CGppSY03p/0l+5+NYK5RqPY9tx3Z/bGoN3+cOirD4PbdQ/X1O3Zh8/SPhE/Oi4vnsnbNGftPn5cvbTxR9bfn5O+emCOBWoQ/+8D/5utKUojJTs3K7Pzm3ikAjNUmrX3p80cO1BomEdqpzWm4s6uat/t62fHuGgF4wrPbK44iZw5bcqGzTWebA8sRCCDds2y+I78lvKU0pc0wC17V7ayCFOt4vHPYtcfBE7W+A2ZOvyd+m2Ls1OKLr+qpz/2Hx5Gsfe86bGnhgBCvY/SkH13MGBb/jB9mTr30cavZ5wa6EUiy+5utPB+YQ0Dg1EUE/T3FrZusQc6fC0Fq7bv0nWExGlJi7Pz23BvA8eMDr+AHgevKbap8ylBkhaKW7twYmELDgjQx3iRik/tmT0/K1JTfo2a2znHrxfJX+L+YoNx3GpBBk7J7NnX2+3epvSZk5OSV/yylIn2S+G1tNWQTBIKaGjnlb6719SURbh3QYirY01pdaGweqn6/Szw0iupycjsZWibH00PC+hHFZzlFuMmoTjgxyxp6UDMLuLwZSmEc+2tQTiYgec2SOzTLE+RPfkBvhUxx8g5iJNt56ueQSgbSo5bVZr44nrr8j0XJ+P3/0QAYBducH5pCTJUu4uA8QMrmjaDu1/JC0IUjJHd+7NdhPLflFMo43eV2lhF9eB3206xufhpat+9nPeauE40ldV9mcE3VZJ32t688+XbcTGsZS1+g8JHS+QIhviAZD4+eDa/xnPzv7BIwrF1zbKeotyOSODiPtbfZKzIYhZbHjLJyowQ2/h2jDeg8ANg5yuQsytI3TILPFoAHf54HOh6ErD2dnEMhMR6kBoBGM0V+BA0A2l8v1B2n/s1+eHQMd7oVw+Hz5xNc/vuxV+KNavuFIeWzOIvD5w/MSZ2TRmbtKOVg8+fVPQt+q2Pv5mRHScIYAS9KH+NdMCLCOWmKi82vB9lw//+XAKhGMhGHJIOrTJ179VDiLelQJWTTro9y+QG3be3dgQgfgrZPnGdQC1Rj8ZR1oMvk1+eF3di0z1toacj6bMV5v+2j9CoI+1/m14Gb33rtnRow0LSE9bF5rmLgQdOIIqXmeqm1ITVmKgOEI6WibAiQWzsr0+f4ViL8JH2CLNBhN/nFtvaFMCh00zrKXQqBeQiNDgxWPB0CQ4RDBw47D5b5JeQH1z94b4ON1KXlLSRuDBGDp5Nc+icXxtWosbXhSHnspF/p723PtEwAGOY37C/2xSsp7GwdtuQsyhd7TVFzjwp//ig+h6zU5hI66diru2rJpSFkqh89+dXYMECYQ6JIUivnLd5DJtR6ONjoxd/+94Xy6XzOcEZZO/lG8tWVTkrJUe3borWM64YgGNEbH9ymGv0ViaurMQSLXsMTcZOvkqJVjdFM1tEy2Tnzlk1hnJWhqUlqtOJ7VIcFrLuw3TqBwqkqC88cg2aTZt1574PVv3irR83C51mvMWliwn/+HgVUCGAkTPzu8AfDyya/IzZFUC7yK31CkdEH7878cKMSXhvtsEeLkycn4CpIVnmcLAwtoBB7U5Zk/8a8+iW0WdUVKF5nZXSisiWohWgg00zn56WwtvhXmNwxCQt0IyV3LnJj8RHqW+jAxK61bkVIA6c//6swUEN5yOFTscocrePodCNaAEpOdk8E26gW6Jb2IsYbElgVOZBbinbyueIJG0yf+ML6BBIqUgqL5+dIZvo3Y8dqAQjUuIeHiv28B4MyJa5/MCzav7sX2Fgb7ScvfA6CSDPXS8DD751rfuq7DVHKytnvAssFXpBRElLVAR0vrBgH01Mw3C8CHgWc7vxw8okawm76KPfvN2TEEfQEBe2u29VG2y0xPgXCm8w9rEynlCyQPLylSegBr9/ZASiskfnaYua2VWWd2n78TLGNLy3Tnl6Jl0u79drCfjo74kLnDfZyS+u88RitEtHjyy5/xLdEN8yhSehzKvdsD7FFckGutClpnAIug01K9NadhNbS1XEdAzkr3PFeOq3UZOIX9OhFkECCzn5MbBuhRDEItrkjpA97PPzjNx6Ouh60HnOpHwA0AfWb/IL9Sy4ggg4wdLdeJgLcbKq6J8GkH2I4AEsx2vvxpLG4R8yFCVV9RpPSJ6N5vBxYB4VoNI1VsY3UJKKMBLhIlVsIyb/funL1GpI8h1OZ6CAJYOfHip2U3qPkcpli+pkgZYNj27gwsEtE1PrRbjG8vHg6ux9+EwIeVOS1KBhDW9luPHvRd9n7SYy995iLpmAIkXityRA5HNhnO5Rr078FB+9GIn3YHGMpIvapIGXA49u4OLALVX2NW09gIyMmbtxAL/9p1GQlShAb5QjmELGJRIECW8i2psDR+wKGu2euKlAGhfvbXp8c0Kl4XHrCypn6dsnnSRpLj8d5jlDGEipQBUdz7a15b0rX6Hs/0d3YsUvnFdBjtvBLt/diAoiL8uiKlMFT2BT//j6c3edP8+a/+sgs38fvZhKaNtF1WGrIoA4qUAUiZuzeQygPdr2GET6Mp5KwGqAhpkUFFygCk3L93ZoqAbjlfG2A9gGm9+a2JfyfIJkBpSFunWwCZbPpX91dOz5EZRFAEQxmvhbD8qnggrLfnj8bQx3ZNMwid0pQBRnnvb/jkCF0sXQtE8dqESLWPcLbzUnNG6oiKmiKlKFI25fb/85k1IL4mQT3uCNBTDbWxtn+pHDpuWClSuiFU5ff9/3R6szQg2/EOVLOOJv59qeMwP6XMVTFhU6QUw8m21P5/OUOFSJVIGYiRaw8hjnb+C7UHKSpqipSiSNmZr//1NIes+bkOIMBX4/dq+36+T2lJ8XFTpBTHqqLk/n/jNSVddHc3lrzahO7Zjn/+mZIzD3KmwPIAlrXo/n8/XSClYqXjrEMA653/7DOHzAQBwG/gVxUpAwzu/v84PQcExq3E/IR/8D6GK1iC+Y4/+Cy2OVgDiIfvVxUpfUMHsP8/vzAFBOFeXEOwTi35CS2fSHG2cQA+4xi1ezedAw01PX+h7Q82OKG1egQRUKQUBMqu2N7qmRFNp9UwTlsQwVMkmGr/p5VJoWi1v3cfWlKaDiOFm5cxBUTnw2hHwGDbp+3/+DO+GVo9HhBQpPQAll3R/f/1Bdke2KeEONM5+tmi16blVvtTeWjpBaB+0KlfM2xq6ifQHIhhXKX+gtfviJbnPDvt/+T/NWWeHVGM7MopUgZBDwAOVk8vA8Kl59X4dK8SrOiAc52jtdvPY42bA20NkM3h4uOz/Tbvt1G+D0e9pyMJOCSxf12RMuAQ7q2enkCNFtjMK0bsWP8tmpWVv+OKrsNyB+SX6yW8rF0JtTUjyXRJDp5iLh7+17n9hZw9dr8DwGz7RaUl/YiXIqUf1CzvHPwtBxFQT/nN0FbNQ1kjVw7RmqZpa62/XzuN6NbF3P8ZSFE+v1juQKpovyWbXpXfEZ62Hempek00bv2N+u+KlBJG6OBvT48Blt6hYVZKmNExv9X5+xtrEj4TahWGKdua4Ox8lwIf2ia83P6PGitreajgWypXpKwl2jH41v7//sKUhjBDBD3+vLm01P4Pn9TrXsoYIOzeREVKd4yaroShNduRs8AXEoIVHycV+rzEg7acPqLM1mAio0gZDL+Gfnvv7/r7NcAZzoxeetuYlaP8N+dshYQ+0vYPVKBAUKFQpAyKYBO8T/f7ew/3E2OEOl8lcKnMoVVw02ZRU4SUJQqKlLKQbKJ6Dv/+zIiu6yOIOEJEvYj6hNKQ8gRAkVIelqomhYAUBBQppcCoKlEIyENAkVIelqomhYAUBBQppcCoKlEIyEMgMqS8evXqJSJKERl3IgKicT9HCgA4NI2vcdviEDUAWL979646nydPBlRNEUOgrqQcHx+/BgDsZvd6a+8GIq4h4uyHH364ETFMVXMUAoEQqAspTTLyObvAB2ARcVGRsyADV65cSSEiWxxVc+IcHh5eXl5etr08NpA0qZelIFBTUppCs2CapVI6UFLJTDqdnpVdaRzqGx8fZ0vjluAkt5ROp1VsaoQHtmakvHLlygQisuCU3OVojwwiPiWiUrOU15Yi+VUzmqZdbiaTdnx8nDMU8DJA6NE0bfTDDz+M/KkVoc40aKGakPLq1asLROQ4OzMJAWAZEZedBGZsbKy3tbXVWH+yiVZlPNbT6XRTpDT0Skh2kjULNnHma+ikHB8f57XjDTuQmIy6rs/cvXvXUz6aF198sZ/fs9EQD3K53EgzrJdefPFFDnVbdRC+B2xpIGKZl5qIlpXnOvp0DZWUpsnKa0i7ZymXy00FIZBJTiY033yVZQdHswjdlStX2LKwWgxZAJhIp9PL0Rc91UInBEIjpUmYJ3YfJqJJr9qx2hBevXp1Stf1tWYhJGMxPj5eetKxCM9lRcj4kz00Ul65cmWVTxFYIZJNyPgPgfceOE146XQ6tPH03kr1hl8EQhlE00V/z6ZRs+l0WuUB9Tta5nsO60nlxAmIa1ReD4WUdusdduocHBykgqwhZYJ29erVOV3XS/KdwlLRpDaF3rih2WEjPnv37t2qUUjmnuw1Dh0sCRnkKjeKThjT8bJe2q/x8fE1IiNxY/E5blfxPxxIyVtIVR1mIvu4rIXz+TyvVY3+lVg7HObIW078neWDg4P10rG04qlp2oM7d+5U3CEigDt/my0s3gbjx/guO62IiLGQEmLJ3vy2tjajn4UzocjfM7brOJyTwzq5n5qmrZdusbGfxOpgvHv37qhM2ZROSifTKmpmKwu/6SAq4lkMPOALe9z2Uh034E3nFnubRaOVWMg58GHJYa1YYV24eF4d5aOaect15vP5G3ZLDocKWWjncrncPJPTBk9bzW2HO6fc1HWdHYKumDFhEokEh1f62mtl+SSiG9W26Kz9LY0as9tE/864AAAHyUlEQVRNkL1skE5KdroQEQcJlD7ZdDrtJugyJxvXumyEw/WdYgFN005ZAxRMzcgmu6tg2X2IhY3D39ra2jYtv4dKSlNjMCG8xh8Xm7nFARvmFpVhXZiPKCl5UvKD2Vw6nZ4WHjQAYC1NRMe3pHl519SgU4jYZ93iizwpHVz1kQvt8ktKIlqxmq5eopVcBIG1j3XyCo2UksMerW0XJaVXbhyXZw12586dSbcKJEw8pZ+oGKPIk9JO2BFx+s6dO3Nu4PHvZuRO6VpP5DXXMnfv3q1Yu1nM12p1HL+radpMqenkshdbrJP3D421ECKy+eTlUh0hUpqhiW5rymMnm7nMuC9gqhf7zpOFl3EJQspjvEwASzVw2Tgh4rzd2rW00Pj4OGPv1vYHvH418XArW9aGOJCS9ybLzBEv8ZZ+10turLQC56IpWSjmNE1brBZHa2oajqpxMs2XiGjO6pwohgwywQUIKkRKryF0LoK6ZPa9bN1WbDcisrPDkSgezddSzfeU67auF01Nx04j28gwu+VEsVIXk5UnHF4Xr1kdkLyDwOtOl5BO4zNxIGXFpnacSMkah50dIkHtVYjNYW4TIp7CamGIpmBJJ2WVb2Y1TRsTcaI4+A5K50avmtI1RNKcBFm7Wx/b5VG1CV7UejPr4AgpxwMRcSBlxX2NcSIlEV0QIVOVAXcVLqtEuQi4VFKaWoetGat29xymWGU/mrvoiZSiuDtMKFvpdJodMGWP06TpdSfAnAzYarAlZhxIad1q4H0f4bC6MMxX1n537twpM6kdBkzYIeXg0OK+CpHaKkBO9fGVctaAiyDBA1XWwL5C9KpoXWFS2jnPnJYj5qRi9VCDdeJ30qoia1C7b1ebgGJJSr9AuK0T7X53EO4KAQnqkHKIPRUmtQ0pOcjAzjSTTUq7QPYH6XS6uFnvCXYnknjUlJ4ivezWw1ZSOlkfuVyuz28Ai9M6PPKkdABjI51On/I02j4Lj4+P8yxaZprZTQp2pBQ1s6sE2/vSNsWuOgy6VFKKfsML/KITIdfpYKF4JWWFNWYdO4ezpoFCEZ2sgsiT0klgRQXeizDYaBv2llUcFbMzKQOS0vYsY9A+igpsEPM1jNMlDsIqbL7amejV5EBk7ESx9CJvTkuryJPSnA0r9oU4YkV2jKDNwr5iO8ZuPek0Y4uSymlwRN93EgQHjSNbU1Y44gAgqIa3O8iuSOmF8SVlpYfZmQJvm23Ai8PHa3+cTAsn17fIbOvV2SBBuCvMMtmOnjA0iBdTUcb3RcbOi/YWlTWndWosNCV38urVq3wawhq5whH/oyJbDqJAcTknzVXtZIrIwLqYUHYax7ejp8o6VbamtEu0lUmn0xe8YF4sW2WLpa6aMiRHj92kGf3ggRKnBQc4252plEpMl6gaR7NMAilts8hViy6pJvT13hLxa3rL2BIJY03pZZITmYyqbdXFRlOaZqxT+kPWMpNBU1dcuXLlOiJfA277VNVaQUlZZZAyuVxu1Ivb3SV+VqqmNMfFTsvzaY8LIpFMAhMvF6mrpqzi6a3Y03QjpVs4ZaxIaZo2rPJtA3z9ZjdnkDj5cJWzf65RNUFJWW3QOfhcNP9sPcLsqkQQ8ZLjssjywtxMZ0+3U9xv3UlZJSyPrbVpkTxRIidpYkVKFlw3YnIZJid7Z3O53IqThjHNkYtmkHC1vK6uhAzqfS3OrGab2NNsF35lHALWNG3Jqn0Yk/b2du4LO8TcNu2la0qXCcUYD13X5+3IaVoIfCbR7fxl3Ulp+jYcz1CyzGmaNnfnzp0Vq7YsZo4AgIrsCdaysSNlkZitra1850e1JMrFvhrpMko7zsedRA7CcrjW4eHhhIjpKENTchvd4iLNfpT1ycPpfn49FFKKTJbF1CXFsShNmeFm8kXBfC0xs92yyBspR0r6KSRvxfKxJGUJOI6JmQUGuVoRDqaeEjFHStriGhUi2iZBYopUx0fGrFo3FFKKWjEijTbLWNseCU3pgZiiXa0Yo1iTkntdJbu5KCjWcnz2jw8ee7oST5amtJiyxcTQfvqynsvlxgKkA/EVQmaa0nyu01eaDDPLPV8lwQ43P+lAbK2BagD6HTtzLc2KQeReGmsTjInftNrKznXGnpQWIWaAeG3iCSTzlD2vBzyTMQxNWTp6pidV5BBw8bX10mwGNmFwoWlKS7s5IJ7XT0KXBZn3v8wdHBwsBkycVTNSFpUCk8tMnCUid2UH3mOZOMuPijDNPyZn0YFTmnrCSNPAtzmbWc+kZEI3T6SXOVlME1hKCkMza9qYrusjJSkmWQiM9Bp8mZFdVndTCxzDSESLVrPcxKtsK4hTMLqlxRAZG3OtyePA49Ffkr7EGAf+jt1FTFY8ndrjgHtFH6u1VdbYsQeZ1/ecBrSYBqTkxjcjlaY1K0HJpHvcRNmXJoUSZicy+KqMQkAhYI+AIqWSDIVAxBBQpIzYgKjmKAQUKZUMKAQihoAiZcQGRDVHIaBIqWRAIRAxBBQpIzYgqjkKAUVKJQMKgYghoEgZsQFRzVEIKFIqGVAIRAwBRcqIDYhqjkJAkVLJgEIgYggoUkZsQFRzFAKKlEoGFAIRQ0CRMmIDopqjEFCkVDKgEIgYAoqUERsQ1RyFgCKlkgGFQMQQUKSM2ICo5igEFCmVDCgEIobA/wfVngs+YZBqzwAAAABJRU5ErkJggg==;" vertex="1" parent="1">
          <mxGeometry x="40" y="130" width="96.76" height="90" as="geometry" />
        </mxCell>
        <mxCell id="iJ2vNzAkWptpj8grVS_f-3" value="Prometheus" style="shape=image;verticalLabelPosition=bottom;labelBackgroundColor=default;verticalAlign=top;aspect=fixed;imageAspect=0;image=data:image/png,iVBORw0KGgoAAAANSUhEUgAAAJoAAACeCAYAAADKbhMBAAAAAXNSR0IArs4c6QAAFhFJREFUeF7tXXucFNWV/k71DA/RoHkYV2MUmK7mTVcPqAu/xBcaFbp6BgVXf9GNJotJNFE3iY/V+Eh8RXfV7BrXkJfR3fhAmelqCOsjPtYVNYGuBlHo7gE0Jix5mNUggsx0nf1VzwzODDPdVT11b3VP1/0P+tzvnPvdb25V3ce5hKAEDEhggCT4CFwEDCAQWiACKQwEQpNCc+AkEFqgASkMBEKTQnPgJBBaoAEpDARCk0Jz4CQQWqABKQwEQpNCc+AkEFqgASkMBEKTQnPgJBBaoAEpDARCk0Jz4CQQWqABKQwEQpNCc+AkEFqgASkMBEKTQnPgJBBaoAEpDARCk0Jz4CQQ2gANvLZ46qhRu8dOp5A13WI0ETCOCePAfCCzMo6Ix9lVmGkXkbULRO8RYxcDuxRCBxeUjXvH7t44bfnrewN5fchA3Qstl5h5LLNyOhFNB9N0gCPeCISyIN7IzBuJrNVqcsMr3uDWJkrdCa1jwczpltIwD2R9hhm2wD4qo+uY+S9EWA1WXlCsrhebVm3YKMNvtfioC6G9foZ2VGOIWpl4EYDPVAn5LxDTis4Ct039pflmlcQkLIwRLbScHltEsFoZZAvsAGEsDg/4fQKvYChtqpFeMTyo6q09IoWWjceWAryUCM3VS/3+kTFjHUDLIqn0slqK20msI0potSqwgR01EgU3IoS2WdcuJMZXRY9gDM4C9CNihEG4yMlf8nBsbMEx4d7JhvnT4eBUQ92aFlq2ZdYxsOgqArWKJpOAZyxWzh4VKnR1WvQHAKNE++zFZ3AbFL4t0r7+17J8eu2nJoW2/tSZ48aOCV3JwFUENHpNyn6PMuDthpA1d1Lb+lxO174M4N9F+xwkhk4Cbtu9p/C9WU9u2CXb/3D91ZzQOuKxkyzCPwOsDbfxjuszzlVT5kO2fVaPPkigzzuu67khmQrjm02p9DOeQwsErCmh5ROxi5n5LkgYxfZxTnS/mkxf0PvvfCLWxswtAvvECXQnEV0eTqZ/4MS4GmxqQmhrlzY3HrSjcBeBLpZNWoh4waRk5pf7hKbH7mLwZbLjGMwfg3+w87DQ5bOXreushnhKxVD1QutonT29UCh8n4CTfCDzN6phHtPXbzYebSGiNh9iGdQlA8+EQqFLm9rWVvWSVlULbdPC6AkhhexP+wn+dCxfoRqZO/r67vkQ+R2Ag/2JaVCv2woWXzhlZea5KoqpXyhVK7Qeka0EUNyW40tRWFPbM5mBvrNx7QEinOdLTEM73VWweGG1iq0qhdYjsmd97si/qoY5frAYcnHtTBAecxuf/U4l+j2zYPGJ1Si2qhPapkR0bojpRbed6L09v6IameMGw13b3Nz4kcMLm0E00alfhXiexfQogCOc1qnUrkA8b0oys6bS+iLqVZXQ7O08DQ14Q0RD3WPyMtXIDLnMlI9H72Siy53gMtNFFlu5kELSRumuLhxdTduPqkZo2Xjzx4msfLW8ZBPh6nDSvG0oITl9vNvrlZGUOTuvxz7P4AedCNMjm3eYlXAkte7PHuENC6YqhLY93nzALrJSLH4K4wUA9orCgeVYI+aLw6nMvaXscnHtFRD6TX8MtLdHM3vbTz6hXcWMW8v59fJ3e312HCvxw1Pr3vcStxKsqhBaTtceB2BvThRaiOgflYK1sqCQLaD5pZwR6Lywkf6PUjbZuHYdEW4sYZNRDbO4VNazqnGP0AYODr5CNcwzffDbz6XvQsvHtVuZcJUkIparhrlkU+sxHwt1db4AwpSh/BKQCBumUSquTQtizaEQrx3KxmK+fHIqc7f9ezYxq5VY8WUHLTFuC6fMqyVxPKgbX4VW6TTBMAj7nWqYR3Z3vHY+MX4+FJbTaYKcrj0P4LOD4LzRqLA2oT3zTtHfwlnHkKL4dxKKcZaaMu0nhy/FN6FtXaQd1dWFpwE0yWo5Ae+HDXPfBHBWjz5CoCWD+R/VoBx+9Ip1/1sutpweuwLg7w20Y/CNESNzQ+//ZxfOOoIUxV5R8Kt0NDRg/sQV/hyE8U1oWV17iIC/k8z6W6phfrrXZz4eO46JX9o/BtqpGumPOIktH581jUnZb52RiE4LJ9NP9MXI6Ro7wRRlw8DDEcM8RxR+KVxfhJZNRC8mJh9ejMlUjXRsQOfbUyr9RtXeKQmnHZLTtScBnNLHftBVhWrYYsTEl0SSGenbi6QLbas+/ZNdaFgDOJ9Vd9rhDuwM1TAT/YQWj/4URPv2m/X89pBqmOc6wCua5PTopQAVX/rtQsDqsGGeMbB+dmH0S6TQj5ziirHjrQ3omjvR2GhvR5dWpAstp0dvB+hb0lrYzxFdqRrp2/sLTTsHhF/0/b+B71flYt2qx2Z2gdd/aEdXqEa6364P+7ctC6PhgkK5cnjif+c7VCNzhXg/fRiR6czOc0EcepGBkEy/vb4KlvW5KSvX24+5fWWzHjlIwQF/7ft/Sig0w+3+rpyu7QDwySIOU1xNpe2dJ/uVnK7Z74SDrqHK4oSAAlNhnsx8IFJHtLwefYSH+MqTQXIDOg8b7JGRi2vPgnCCHQMBr4UNc7rbePKJ2BPMfGoRQ1Gawu3rtgyGkdVjlxD439zie21P4EfDRuZsr3GHwpMmtOzC6Bmk0CpZDRvoZ6j3Jtsup2v2wZPiFzAR3RJOpq9xG2dWj95AoOsB7FUNc/RQ9V9bPPXAxg9GmzKndYaKhS1eEFn54TZ1t212Yy9NaLm49hgI/i2FML6upsxBR5KcHr0LoOI5ALYwP7LS/JUbEotiTcQuALO9G3i9apjRUvVzunYtgO+69eG5PeNxNWWe5TnuIIBShOZ0p4PIBiugcJOR7hjMR4eufcOCfYSvvEiGinFLi3ZywcLTTuaqOlpnHmoVlJd8+vLu1wSnKyDD7RspQvN76zMDqyODTDf0kte7FGYvuoeTafs4n+vS54vyOtUwy45Wubj2NRD+1bUjjysw48FIyjzfY9j94IQLzfc1vu73rktKnYHsWRxvHzt6jHrk8pd2V0J6/vSm0dx40B4iLA4nTUfbvLO69j8EzKvEn5d12LKOjawUm25BvND06D2i98mXIb2zUWF1QntmyJ27by2e9tHde0d/RU2mbx5OB+Z0zV7LPFc1zP92gpNPaGcxY7kTW5E29lmGiJG5RKQPoULbsrh5fOED63UAh4tsRClsImoPJ9Nlk8DYW4emtP367eHEmdW1Fy1Svjwlue5Vpzi5uLYGhL91ai/IbntotDJ10vJ17wrCt6eNxJU+X2LinJRBJuJ/CCczP5YRQF7X2tFZuCS8eoPjXRp5PXo1g26REV9JH0QXqsn0z0TFIVRo+YRmMCMuKngHuO+NalBUJ9t9HGCVNcnq2o/37Clc6ibbz6ZE84wQWxvKggs2IEIqnDR1UW6ECW2zHpup9Fv/E9WEoXGJ8Ug4ZUrbimTvFq5kJ2suEXsCPasK8ln60KMFmjXZSAsRvTCh9Zkp9407UnB+uN2UdvLIzp2mGuZ9bhvcZx7PbVVP7d1uJnDjXKTQVhJogZtgvLWlnYVQw4ThvuC7icnO3VZJ3rLsQu1kUoq7jX0tDF4VMTILRQQhTGg5PboDoO7dDH4UxnNqyjxRpuv8opmfCq9w/iHQG1vPHJy9g0RautLBeeE/qEbmMBGcCRHalkTzjILPL7gE/EvYML8pgjQRmDk9+jJAx4rAdoMZImXmJBfTM06xhQgtr2sXMvATp0GIsGPm1kgq0y4CWwRmPhG9k9lZigUR/nsxCfhiWEAWcCFCy+manUzYTirsW2lU+JDeo26+BeHCcS6hfR2M77uoIsr0PtUwv+I1uCih2WnK53gdrFM8+0rDiGGWTXvgFE+GXTYRO5uYH5bhq4yP/bJcehGTGKHFtd0gjPEiwAoxtquGKTw9VIWxDVqtGrZSFQNj7FFT5lgv22ZjeS60Dj3WZIHtI2z+FcYmNWVO9S8A955zC2JTEGJ7Xdj3UmrvXqXBeS+0lmiLZfmeTPhl1TD9Xqh21SdvLphxyAehhr+4qiTIWFG4tand2w8pz4WW07VvA/iOIA6cwtac0LadcMKYzo+8W9FeOKekuLBztHnTBZ73j06/Tzr1NH6zaphDZgpyQ5As22y8eTKRtUmWv1J+RJyQ8nxEs/dkETDXT8II2BE2zL/xMwa3vjfrsdMU8Gq39UTYM7AmYpie7vz1XGg5XbOPkpU8BSSCnAGYe1TD+y8nkXH7dZnZEG3al0DQqzaLEJp95D/sVYCV4oQsVietzPj79esi+HwVXf1jJ6hUDVN1EX5ZUxFCs3eX+j6HRUyXh1PpfYlXyjLhs0GVPAl6Wfi9apif8pISEUL7vyrJrP20aph9U0l5yZunWJtaokeHLNrmKejwwN5RDfOQ4UH0r+250LK6tlfGZa1OSBAx8ejEr1ubXDz6BRAJ26/vNh4GOiOG6emWpREtNJE7Rt12Xin7Kjhb0S+8mhBaTteq5dFpk7d9VIMyW9bhlErEl4vHFoI4VUldgXWq/9HZc4jW64+B3wLYl3vWDcHVPqoNdzRjxptEOMoNJw5sa+JjwPPpDQIVmGge2NK671In+5IIOxetk4R+2xXQ8UMleHFAujCTnB5bBLCblOxvg2EfTt7AzK8CvIEU5b8AePriXivTG0ImbEOgMycZ6X0XQhQz8nQ1HMPgOUTU3C3AwU/Eiz6zWIkS185vHj9+nLWeecjRyP6oKgqKSUmHyEqHDjk4PeH+5/b0+ssltPlgPFWJ/zJ1qn/CVtQSFAHPhw2zmJVxqJJbMGei0lCYw8xzmNGMbgEeZNsPJ1OQgI5ENh5rI+KWHuz3GNhgCwtMGYaVXj8mnF6yfHmhZHsT0Z+B6Qtex1crS1D2nZSLvW58USywYmFjvT1iOi7ZhdosRUGzxdQ8upFuqoYPg45E7GwLmM0Wb2gkWj+xgkO7+dO1T3Aj7MlxT6cheogtXmXkmGQHhgKmN/al2HTg3q0J360aGUd3ZLpFrjX7fDz6VSYScl+AiA8oz4WW16OLGcWbdgUU2vkB7Z02I7nxLQHgNQNptkQPHmcVb2kWsouYwEvCRsbTdFreCy2hTWXGa6J6jYA7w4b5DVH4tYCb0zV7Y6m9wVRIIcK0cNL0dFu550KzWy76ziMFdHqTkbY/6+uu2O+cpMC+L/0AUY1XDdNzXXgOaDc+r2sbGZgmiggCXmwa3XQ8lfkqE+XfT9y8rv2cAWE5Zyu9Z6EcJ6KEJpQMu1EEviFsZErd/luu7TX3ewUTvK7bSMADYcP8e9cVy1QQI7RE9EvM4i/XCimYP6nd/Z0AXpMoAy+vz9IYin0hiNAt6qIyZAoR2tZWbVZXARnRHUDAGnTuPCm8uuMD0b78xF8bbz5gPFlPsYSzGA0hRCe2mX0uUPOm5UKEVvwgiGt/BOET3oQ5NIoCvr3JyFwp2o+f+Lm49p8gOL7WseJYGX9SU+ahFdcvUVGY0PK6lmRAWE7Uvm0iIj2cTFfbVhtP+ktm5kwCjPCA+0w9aYSIlAi9gUkm6LUui4XmyfeKcDc4ikKHEWBfiCaliFgR6A1c4IhWfHlNS2EocOIJA5WsJTt1LExoxfe0/e8adxpXYCefgadUwyzeNyqiCBVatVyCKoK4kYbJoK9FjPQ9otolVGgdiTlHMndtZoHLJaKIqSdcAt4napjclPyNsM0KQoXW8/jcd7tvPXVejbX1YdUwzxEZs3ihSTrlI+uCU5GdMRBbWhZIpriaSq8U2TbhQrODH+5JHycEBEJzwtL+NrLOU0gRmoyzi4HQKhMaJIxmdmRShCZjVAuE5l5oskYzqUITPaoFQnMvNFmjmVShFb9AE9pjYJxZASVlqwRCK0tRfwPC42rSPMtlrYrNpT06e6Y6Pgvg+YqjLVExEJprVo93eve7a+RBKkgVWs+odh8YF3kRfF+MQGguGCX8UE2aUq9Qki60fPGUFL3ce4LcBT0lTQOhOWWSdhLxcV6fcirnXbrQuke16E1guqZccG5+D4TmkC3im9Vk5lqH1p6Z+SK0zXrkIAVjn6qG+yk9Y7ImgPgVC7tPmWxkd8oO1xeh2Y3s0GedyFDsffBOUk/J5mXE+SOgQLBOaTLWP+tH43wTWvdXaPRbAN3uR8PrzydfoRqZO/xqt69CsxtdJVf6+MW/FL8irtxxG7jvQsstmDERoQY7vYGUSzDs3F8Ai0he54J7OkXiNUZ5FLpOU1e9utVFgJ6b+i60nkfoKQxaJSltvOe3grjtlZyueZ5+dbAY7OzaBF6gGhmf/7AkLqqX64xsXDuPCA+Us/Pgd88zTruNSVbmcmacH0mZD7qNT4R9VYxovQ2TdcaAOnFoeLX5JxGElsPsydT4x3J2w/1d9BkAt/FVldC6H6OaPZn4XbcNcWNPzBeHU5l73dTxylZkpsY+MX5bNcybvIrZC5yqE5rdqGw8tpSIf+hFAwfFYDynpswTheGXAM7FtWdBKJn0eThxMdNFkVR62XAwRNStSqHZDRWbohQA8wVqKnO/CFKHwhR955OIlKBe8VO1QpMgtjcKCp84pT3zhldklsLpucHOnpU/WoS/ahaZ3d6qFlofsdn3bh4uoIM8T3M+5Gima6LS4m8n8GVeJzf2muuqF1pRbN0JmG+FmOxEwsWWEycygwhXy97yU4kIa0JovQ3L6ZqdidrOSO1pYaZ2ReFrvO4w+w/EsujmPjekeBn3daphCv069zLYmhJa9xepdjoRbgEQ9ZiIHWBcG06ZP/ECNx/XvgjCTQwc5gVeH4wMM/4pkjJXe4wrFK7mhGazsa0lenCXpVzP4MsEsPMEmB9QU5lfVIKdi0fPBZGdNftzldQvVYdAdzco1o0T2jPveI0tGq8mhdZLSjYebSGi670e3Xq+ktYyYw0rtGZMV+eTR6161b7wdr/y5oIZh+xpaDyVLJ5LhLkMzBbQaRlmvjGSyrQLwJYCWdNCkzC69e2Ed8H8NkB/7v5P/jiIPgZgvMiequVRrC8vNS+03sZ0tMSaLctaCtBSkR0vD5uXKYqyrKk9vU6eT3GeRozQRo7gRpbAevtlxAmtr+C4wGdZhEUEqOL+VoePzEBOYaygED02UkawgayMWKH1NvTRxQhpe7VWZiwCqBXgMcOXhhcItAfgNiKsMEeZbUuWo+Rtw1549BNjxAutL7mb4zMnKBSypx2OJ+AEAXNcJfuSgB0MPGenhbC48MTk1IZtfna+TN91JbSBxHYkonMtppPBOAmEiQA+7TH5vwVjKwjPKMS/akpm7OsP67LUtdAG9vijixeHYh9smWDBmgBWJoL4CALGMWEcmA9kVsYR8bji5AbTLiJrF4jeI8YuBnaB6fcga6sCZVt69KRtS+rwmseh/ooCodXl+CK/0YHQ5HNelx4DodVlt8tvdCA0+ZzXpcdAaHXZ7fIbHQhNPud16TEQWl12u/xGB0KTz3ldegyEVpfdLr/RgdDkc16XHgOh1WW3y290IDT5nNelx0Boddnt8hsdCE0+53XpMRBaXXa7/EYHQpPPeV16DIRWl90uv9GB0ORzXpceA6HVZbfLb3QgNPmc16XH/weJbL4IuJGM0QAAAABJRU5ErkJggg==;" vertex="1" parent="1">
          <mxGeometry x="340" y="120" width="97.47" height="100" as="geometry" />
        </mxCell>
      </root>
    </mxGraphModel>
  </diagram>
</mxfile>
